HIERARCHY
ROOT root
{
	OFFSET 0.000000 0.000000 0.000000
	CHANNELS 6 Xposition Yposition Zposition Zrotation Yrotation Xrotation
	JOINT lhip
	{
		OFFSET 0.058581 -0.082280 -0.017664
		CHANNELS 3 Zrotation Yrotation Xrotation
		JOINT lknee
		{
			OFFSET 0.043451 -0.386469 0.008037
			CHANNELS 3 Zrotation Yrotation Xrotation
			JOINT lankle
			{
				OFFSET -0.014790 -0.426874 -0.037428
				CHANNELS 3 Zrotation Yrotation Xrotation
				JOINT ltoe
				{
					OFFSET 0.041054 -0.060286 0.122042
					CHANNELS 3 Zrotation Yrotation Xrotation
					End Site
					{
						OFFSET 0.000000 0.000000 0.000000
					}
				}
			}
		}
	}
	JOINT rhip
	{
		OFFSET -0.060310 -0.090513 -0.013543
		CHANNELS 3 Zrotation Yrotation Xrotation
		JOINT rknee
		{
			OFFSET -0.043257 -0.383688 -0.004843
			CHANNELS 3 Zrotation Yrotation Xrotation
			JOINT rankle
			{
				OFFSET 0.019056 -0.420046 -0.034562
				CHANNELS 3 Zrotation Yrotation Xrotation
				JOINT rtoe
				{
					OFFSET -0.034840 -0.062106 0.130323
					CHANNELS 3 Zrotation Yrotation Xrotation
					End Site
					{
						OFFSET 0.000000 0.000000 0.000000
					}
				}
			}
		}
	}
	JOINT lowerback
	{
		OFFSET 0.004439 0.124404 -0.038385
		CHANNELS 3 Zrotation Yrotation Xrotation
		JOINT upperback
		{
			OFFSET 0.004488 0.137956 0.026820
			CHANNELS 3 Zrotation Yrotation Xrotation
			JOINT chest
			{
				OFFSET -0.002265 0.056032 0.002855
				CHANNELS 3 Zrotation Yrotation Xrotation
				JOINT lowerneck
				{
					OFFSET -0.013390 0.211636 -0.033468
					CHANNELS 3 Zrotation Yrotation Xrotation
					JOINT upperneck
					{
						OFFSET 0.010113 0.088937 0.050410
						CHANNELS 3 Zrotation Yrotation Xrotation
						End Site
						{
							OFFSET 0.000000 0.000000 0.000000
						}
					}
				}
				JOINT lclavicle
				{
					OFFSET 0.071702 0.114000 -0.018898
					CHANNELS 3 Zrotation Yrotation Xrotation
					JOINT lshoulder
					{
						OFFSET 0.122921 0.045205 -0.019046
						CHANNELS 3 Zrotation Yrotation Xrotation
						JOINT lelbow
						{
							OFFSET 0.255332 -0.015649 -0.022946
							CHANNELS 3 Zrotation Yrotation Xrotation
							JOINT lwrist
							{
								OFFSET 0.265709 0.012698 -0.007375
								CHANNELS 3 Zrotation Yrotation Xrotation
								End Site
								{
									OFFSET 0.000000 0.000000 0.000000
								}
							}
						}
					}
				}
				JOINT rclavicle
				{
					OFFSET -0.082954 0.112472 -0.023707
					CHANNELS 3 Zrotation Yrotation Xrotation
					JOINT rshoulder
					{
						OFFSET -0.113228 0.046853 -0.008472
						CHANNELS 3 Zrotation Yrotation Xrotation
						JOINT relbow
						{
							OFFSET -0.260127 -0.014369 -0.031269
							CHANNELS 3 Zrotation Yrotation Xrotation
							JOINT rwrist
							{
								OFFSET -0.269108 0.006794 -0.006027
								CHANNELS 3 Zrotation Yrotation Xrotation
								End Site
								{
									OFFSET 0.000000 0.000000 0.000000
								}
							}
						}
					}
				}
			}
		}
	}
}
MOTION
Frames: 17
Frame Time: 0.033333
-0.725267 -1.446288 0.959287 16.632915 -1.516479 93.902199 9.201682 5.020343 -17.800945 -10.289118 4.409357 29.881917 1.753172 8.070288 -17.435750 0.000000 -0.000000 0.000000 -13.862209 -8.702500 -23.864079 3.819427 -10.937674 31.979002 4.491362 -6.076031 -10.444816 0.000000 -0.000000 0.000000 0.740665 -0.443076 15.074343 3.447964 -2.840780 0.371717 -0.262088 -4.095747 2.681245 3.434697 -5.703161 -9.264007 1.924061 -11.382659 0.707004 -25.448205 3.295335 7.765509 -47.882380 2.486059 15.392569 -9.604361 -63.162209 25.600241 15.079888 -9.521642 -15.836067 27.070917 0.347719 -2.876446 47.672684 12.542002 10.140982 -24.361162 51.045924 -19.346102 -4.395103 7.374582 -3.827301 
-0.726329 -1.427522 0.946732 17.631797 -2.082931 94.957279 10.567473 5.828175 -23.967487 -12.457065 5.134447 37.130564 1.162988 5.529427 -19.047210 0.000000 -0.000000 0.000000 -15.971224 -9.884002 -31.658799 4.170720 -10.230683 42.004319 6.077322 -4.477480 -10.151457 0.000000 -0.000000 0.000000 1.439818 -0.982784 20.402038 3.458411 -2.286854 -0.817103 -0.141685 -4.386506 2.018727 3.278111 -5.601212 -12.984105 1.766587 -10.051179 -2.941483 -25.495555 3.675201 7.255772 -48.380738 2.538513 13.762480 -4.625802 -66.164266 19.914863 16.688058 -10.332452 -17.557116 25.160700 0.843631 -3.668695 43.571842 14.769027 8.541373 -30.379580 56.844389 -26.485493 -4.911433 7.986906 -7.040048 
-0.728243 -1.412026 0.923889 17.512379 -2.244698 95.432287 13.199303 7.997164 -28.569219 -9.826756 8.735465 43.264114 1.833347 7.275409 -21.050702 0.000000 -0.000000 0.000000 -17.678390 -10.776062 -37.656403 3.072565 -10.145414 48.910226 6.470320 -3.224486 -10.620431 0.000000 -0.000000 0.000000 1.803051 -1.611610 26.531801 2.824463 -1.564597 -2.195264 0.604888 -4.625802 1.571988 3.372482 -6.416386 -15.884912 2.121595 -6.120545 -8.397650 -26.680316 4.540188 6.128576 -50.299347 2.690581 10.632513 6.271533 -66.250642 6.883248 20.456983 -9.468142 -19.758736 22.804737 2.036408 -4.853601 38.036692 17.609198 6.322089 -40.106076 62.111511 -38.198671 -8.348413 8.952351 -8.897838 
-0.729544 -1.397451 0.880887 17.418743 -1.948175 95.974902 18.686645 10.998456 -33.010544 -4.120450 11.692179 49.082006 3.457722 11.643295 -20.166514 0.000000 -0.000000 0.000000 -20.059509 -12.157338 -42.309067 3.950309 -7.858299 53.078522 8.423371 0.627052 -12.966889 0.000000 -0.000000 0.000000 1.693074 -2.954639 34.186006 2.182815 -1.400412 -6.181514 2.212373 -4.845252 1.737972 2.639547 -8.425985 -18.246265 2.468135 1.787681 -12.416708 -29.178177 2.629977 7.032410 -55.327186 4.311475 3.556797 20.873791 -62.683636 -12.700035 31.493641 -4.133011 -21.737470 18.220831 5.429930 -6.934813 28.431736 20.369922 -1.370048 -51.753146 68.078862 -52.631613 -13.868572 10.204664 -10.377323 
-0.729767 -1.391815 0.848667 17.129213 -1.735966 95.866581 22.395652 13.574075 -34.858983 -2.622455 9.912122 51.853712 3.810611 11.432474 -20.005654 0.000000 -0.000000 0.000000 -20.784349 -13.421193 -45.720476 5.979192 -5.745588 58.991560 7.411387 3.290763 -17.571859 0.000000 -0.000000 0.000000 1.438555 -4.029939 37.670852 1.574809 -1.551634 -6.203917 2.477381 -5.071365 1.065608 2.820983 -8.104685 -19.362842 2.578822 4.412943 -15.636826 -30.462601 1.850386 6.488936 -57.047221 5.249597 0.604638 25.971214 -58.892221 -21.570346 35.467991 -0.893185 -21.926523 15.743364 7.568048 -7.898170 24.302220 22.630967 -5.073131 -64.365048 67.353217 -67.215558 -17.392014 8.740028 -7.718465 
-0.725144 -1.383141 0.805243 16.994265 -1.066634 94.271220 26.634263 15.956936 -35.203510 -1.042983 5.055321 53.377363 2.438143 12.336696 -20.898904 0.000000 -0.000000 0.000000 -21.718664 -15.554457 -49.400105 6.457925 -7.223107 66.626966 7.276870 4.054122 -21.249496 0.000000 -0.000000 0.000000 1.859744 -6.380091 43.639383 0.148764 -1.487274 -6.019129 2.548143 -4.965930 -0.184329 2.574031 -6.487305 -21.064297 1.272798 8.024157 -18.346015 -33.094138 -0.835963 6.647701 -57.513669 5.665809 -2.663170 27.329619 -51.422503 -24.943837 36.834114 2.036227 -24.746280 13.873501 11.826946 -8.361368 11.690707 25.052032 -15.029426 -65.773072 65.764849 -69.684967 -26.361191 11.202451 -10.182646 
-0.713718 -1.371440 0.767860 17.192538 -0.557480 91.604492 30.346262 17.864286 -34.671402 0.840643 3.358457 55.128172 2.615196 12.967863 -20.956649 0.000000 -0.000000 0.000000 -22.853277 -16.806212 -51.372245 7.596011 -6.060967 72.701258 6.832112 4.094139 -22.934795 0.000000 -0.000000 0.000000 2.048612 -9.084578 50.189370 -1.544456 -1.877978 -5.628406 2.046632 -4.938402 -1.672058 1.684954 -7.736743 -22.143765 2.426080 11.322027 -19.151262 -35.511646 -4.121641 5.884310 -56.305759 6.977413 -4.851749 26.043148 -44.425528 -29.302719 33.658473 0.540882 -23.583286 9.926811 17.033226 -8.887139 6.887434 24.084428 -19.936889 -70.642224 57.029852 -78.279667 -18.658978 14.564369 -3.895616 
-0.698331 -1.360689 0.736276 18.030215 -0.645488 89.627734 31.552294 20.662309 -36.061502 0.776256 2.348202 58.594750 1.688095 12.901040 -20.153662 0.000000 -0.000000 0.000000 -23.570689 -18.539435 -53.583413 8.053481 -3.611130 77.752209 6.984564 3.395381 -23.875939 0.000000 -0.000000 0.000000 1.667736 -9.996659 55.737522 -2.963842 -2.611221 -7.033723 2.197277 -4.885185 -2.571327 0.761242 -10.354630 -21.627431 4.252103 14.219876 -19.780083 -37.104700 -5.984508 4.720065 -53.811478 8.359587 -7.839966 23.607505 -41.205708 -28.691763 35.359128 -1.409069 -19.987121 7.214900 21.050815 -7.110761 -0.207484 19.536007 -27.318897 -64.588562 53.066341 -76.958657 -24.612772 16.960668 -2.614296 
-0.677473 -1.347994 0.712326 19.764480 -0.512532 87.887192 32.145320 22.685101 -39.908731 0.296539 5.323172 67.725041 1.686695 11.926665 -22.967560 0.000000 -0.000000 0.000000 -26.112914 -20.243387 -53.426217 7.427914 -2.685019 80.200327 8.529318 5.183329 -23.455084 0.000000 -0.000000 0.000000 1.455014 -10.191735 58.880313 -3.725468 -2.491200 -7.767845 1.465545 -4.611903 -2.740096 0.708891 -11.581251 -19.600741 4.921835 15.213873 -21.231503 -36.889424 -5.480007 4.503871 -50.296618 8.171380 -8.820499 26.038851 -44.627610 -29.891185 35.927863 -2.227650 -18.926304 4.973223 20.441261 -6.832886 -0.533318 16.848799 -29.199430 -59.538678 48.669830 -76.246104 -26.527665 17.271530 -4.079918 
-0.644777 -1.326193 0.696627 20.952568 1.845414 86.145749 32.354452 26.808015 -44.754636 0.726437 6.515644 75.394561 1.132327 11.833078 -23.446798 0.000000 -0.000000 0.000000 -26.895688 -20.974144 -51.192097 7.179747 -0.836875 78.380778 10.365905 4.569022 -19.666737 0.000000 -0.000000 0.000000 1.979466 -9.133333 59.599648 -4.597253 -0.737806 -6.387892 1.080125 -2.713575 -2.887675 0.053192 -10.549830 -19.009362 6.688927 11.750064 -19.218790 -35.131812 -4.887003 4.406069 -42.361136 7.716318 -9.079451 29.111877 -55.469889 -26.298773 33.423459 -5.549440 -18.156424 7.774446 18.824974 -3.305956 -3.232150 9.586036 -30.527320 -51.460484 47.548350 -71.274339 -33.726390 17.708673 -6.777138 
-0.610124 -1.308564 0.696240 23.441543 3.365186 84.418169 32.165309 25.650523 -46.331029 -2.356957 6.514846 79.475178 -0.962284 10.411806 -23.186677 0.000000 -0.000000 0.000000 -29.604891 -22.631259 -46.079164 7.062491 -0.798035 74.957628 13.735481 4.873376 -17.180720 0.000000 -0.000000 0.000000 2.264464 -6.115876 57.515881 -2.912025 -0.769851 -4.578100 1.462853 -2.689230 -0.713442 3.494250 -8.255618 -19.048145 6.572049 6.142039 -15.445500 -32.593505 -4.473821 1.970065 -34.367743 5.958251 -6.205933 33.610051 -64.033900 -25.954920 32.613217 -10.488980 -13.142275 10.848797 16.103952 -8.470221 1.701948 10.762505 -23.100780 -49.585264 44.494698 -68.718025 -31.080769 18.119768 -7.746252 
-0.568894 -1.286834 0.705531 24.833155 5.354357 84.144579 32.069859 24.859631 -46.739696 -3.382513 9.379502 81.034559 -1.672737 8.772753 -26.150412 0.000000 -0.000000 0.000000 -31.158499 -22.466899 -40.472997 6.984245 -0.135682 67.199374 16.877392 4.051419 -12.515007 0.000000 -0.000000 0.000000 1.926926 -1.997948 53.786173 -0.320483 -1.168051 -3.369825 2.523086 -2.252593 -0.168460 5.138165 -4.334825 -17.316376 7.395959 1.898304 -11.122413 -28.746485 -4.726599 2.577533 -28.894005 4.403380 -4.667225 43.874169 -73.236913 -33.410488 32.816114 -13.039000 -12.922625 16.037989 13.682819 -7.402277 6.113220 10.890957 -19.387825 -50.165730 44.015839 -68.463675 -31.047323 16.890280 -9.715988 
-0.519783 -1.262944 0.726710 26.646765 7.727712 85.442817 29.937324 23.767820 -47.724516 -2.283888 11.819991 81.457357 -0.487058 7.264957 -29.858950 0.000000 -0.000000 0.000000 -32.078635 -21.041159 -33.253718 5.295276 0.451278 54.795796 21.722371 3.323532 -4.617500 0.000000 -0.000000 0.000000 1.677702 1.304325 47.447358 3.398862 -1.656378 -1.780989 3.582843 -2.186632 0.234712 7.749274 -4.004931 -13.897825 7.290444 -1.066527 -6.214058 -25.481420 -4.067736 4.819641 -26.272768 1.444592 -2.448659 73.662583 -78.751510 -60.480964 34.974625 -12.618860 -15.537400 18.681739 10.718689 -5.998868 12.437698 12.197907 -16.831377 -51.248769 42.709656 -68.414835 -30.444511 16.951075 -8.436218 
-0.464654 -1.231309 0.757012 27.272330 9.826010 86.917360 26.629131 20.547915 -47.571877 -0.569348 13.910772 79.739184 2.127961 9.207997 -32.629771 0.000000 -0.000000 0.000000 -31.196816 -18.797230 -28.735383 1.544276 -0.734289 42.843361 24.600000 -1.963618 8.628630 0.000000 -0.000000 0.000000 1.971059 2.583336 43.003451 5.448162 -1.439990 -2.763345 4.782504 -1.979676 1.726834 9.420869 -5.654322 -11.057914 6.901415 -1.435399 -1.685429 -23.703469 -2.295491 5.708715 -25.069277 -0.042872 -0.423799 118.867829 -79.486347 -104.164911 35.044811 -12.643779 -15.604627 20.137509 8.429519 -5.652663 15.469318 12.917209 -13.486446 -51.929911 41.186982 -69.547197 -30.638778 13.873081 -8.096246 
-0.410210 -1.195361 0.788819 25.956655 10.908488 88.214071 22.609499 18.607930 -46.213138 0.485605 16.024609 75.978358 4.513409 11.757460 -33.580312 0.000000 -0.000000 0.000000 -28.544113 -17.147567 -29.115030 1.976694 -2.097325 38.107372 18.221463 -1.196390 4.728041 0.000000 -0.000000 0.000000 2.810604 2.435506 41.182259 5.214134 -0.489862 -5.268001 4.701449 -1.414858 2.720110 8.800479 -6.692969 -7.684626 7.835397 -0.151660 -2.072955 -22.244661 0.040178 6.103988 -23.548704 1.961610 0.889592 152.073576 -75.469196 -136.593757 34.265368 -12.582806 -16.946530 20.335464 7.570561 -4.716299 15.504584 13.317725 -13.982826 -49.799594 40.930670 -68.802109 -31.021628 12.929655 -8.943497 
-0.358345 -1.155303 0.819841 23.725928 10.649274 88.620594 17.425231 17.543595 -44.228925 0.674616 17.411873 71.240991 5.409204 13.206076 -32.419572 0.000000 -0.000000 0.000000 -24.758903 -17.134485 -33.768629 1.530117 -7.138979 44.226816 13.951066 -4.629437 -0.003307 0.000000 -0.000000 0.000000 3.663837 1.436651 41.366901 3.908808 0.981056 -6.239483 4.067843 -0.764247 3.381471 7.131025 -6.638213 -6.580060 6.910244 0.913823 -4.364529 -21.902207 1.605711 6.264843 -23.027908 5.360004 2.326532 161.129736 -71.171226 -146.157910 34.726226 -13.012848 -17.486580 18.667178 7.794520 -4.747902 14.383133 13.593083 -13.964417 -48.892977 41.179304 -69.075164 -32.107811 10.184903 -6.916182 
-0.308396 -1.111202 0.849413 22.317599 9.034806 88.548931 12.680740 16.722273 -42.840670 -1.337999 19.152540 66.877168 4.233559 11.258516 -25.110242 0.000000 -0.000000 0.000000 -21.301222 -17.277698 -38.830656 0.267091 -12.999183 54.870051 11.236739 -7.297375 -3.239824 0.000000 -0.000000 0.000000 3.984815 -0.248502 44.059107 2.225645 2.144121 -6.881656 3.427744 -0.349705 3.342188 4.847563 -7.023212 -8.321281 4.610227 3.023259 -5.554203 -22.261265 2.360135 5.695113 -24.607861 8.494944 4.948659 161.582983 -69.717928 -147.314123 34.452524 -13.445562 -18.058925 16.722118 9.410856 -6.040471 9.624972 13.017548 -15.663462 -44.902087 40.737591 -66.438622 -25.437296 16.217974 -5.692859 
